<svg width="101" height="24" viewBox="0 0 101 24" fill="none" xmlns="http://www.w3.org/2000/svg">
<g clip-path="url(#clip0_1705_5900)">
<path d="M36.1365 16.7671C35.3788 17.8661 34.0875 18.4993 32.5499 18.4993C30.0489 18.4993 28 16.6861 28 13.1832C28 9.68017 30.1323 7.88725 32.6333 7.88725C34.0672 7.88725 35.2973 8.4174 36.0568 9.39485V3H38.1687V18.4993H36.142V16.7671H36.1365ZM36.055 12.0419C35.6863 10.6374 34.4562 9.74091 33.0834 9.74091C31.5866 9.74091 30.1934 10.7386 30.1934 13.2034C30.1934 15.6682 31.5866 16.6457 33.0834 16.6457C34.4562 16.6457 35.6863 15.7492 36.055 14.3447V12.0419Z" fill="white"/>
<path d="M48.721 13.8145H41.0347C41.1162 15.7289 42.4074 16.7671 43.8635 16.7671C45.2363 16.7671 46.2626 16.1763 46.446 14.9742H48.5783C48.3523 17.093 46.5701 18.4772 43.8431 18.4772C41.1162 18.4772 38.8208 16.6236 38.8208 13.1813C38.8208 9.73907 41.1773 7.88541 43.9247 7.88541C46.672 7.88541 48.721 9.75932 48.721 13.2623V13.8145ZM41.0958 12.2462H46.4664C46.3015 10.4533 45.3178 9.63967 43.8839 9.63967C42.45 9.63967 41.281 10.4956 41.0958 12.2462Z" fill="white"/>
<path d="M58.119 15.3626C58.119 17.0727 56.7055 18.4993 53.6099 18.4993C50.7643 18.4993 49.0581 17.1224 49.0581 15.0037H51.17C51.17 16.145 51.9481 16.8297 53.6303 16.8297C55.2086 16.8095 55.9867 16.3198 55.9867 15.486C55.9867 14.6521 55.392 14.2637 54.2861 14.1422L52.5224 13.9176C50.3697 13.6728 49.3656 12.5941 49.3656 10.9853C49.3656 9.37644 50.6773 7.88909 53.5673 7.88909C56.4573 7.88909 57.893 9.45743 57.893 11.5338H55.8218C55.8218 10.2711 55.0234 9.51818 53.4858 9.53843C52.0296 9.57892 51.4368 10.1293 51.4368 10.9024C51.4368 11.6148 51.95 11.9811 53.1579 12.145L54.8585 12.3695C57.1335 12.6751 58.1172 13.7133 58.1172 15.3626H58.119Z" fill="white"/>
<path d="M61.0146 5.9618H58.597V3.67925H61.0146V5.9618ZM58.76 7.87621H60.8516V18.2839H58.76V7.87621Z" fill="white"/>
<path d="M69.6216 7.89646V9.58629C68.8843 8.50759 67.6134 7.87621 66.0758 7.87621C63.5952 7.87621 61.5055 9.66912 61.5055 13.1114C61.5055 16.5536 63.5971 18.3465 66.0962 18.3465C67.5727 18.3465 68.8028 17.7556 69.5605 16.7377V18.2858C69.5605 20.2407 68.6175 21.0635 66.7724 21.0635C65.5015 21.0635 64.6567 20.7064 64.2955 20.0161H62.0298C62.4188 21.7299 64.0139 23 66.752 23C69.9495 23 71.6724 21.2384 71.6724 18.1017V7.89646H69.6216ZM69.5605 14.2103C69.1918 15.5946 67.9821 16.4708 66.6093 16.4708C65.1125 16.4708 63.699 15.4933 63.699 13.1095C63.699 10.7257 65.1125 9.72803 66.6093 9.72803C67.9821 9.72803 69.1918 10.6042 69.5605 11.9885V14.2103Z" fill="white"/>
<path d="M81.6522 11.9498V18.5085H79.5402V12.1744C79.5402 10.5656 78.7622 9.75012 77.2449 9.75012C75.8518 9.75012 74.7643 10.6871 74.416 12.1339V18.5085H72.3245V7.87621H74.3531V9.62862C75.07 8.52968 76.3001 7.8983 77.8581 7.8983C80.4406 7.8983 81.6503 9.54763 81.6503 11.9517L81.6522 11.9498Z" fill="white"/>
<path d="M82.3043 14.0465C82.3043 10.665 84.3125 7.89646 87.4896 7.89646C90.174 7.89646 91.8969 9.58629 91.8969 12.3364C91.8969 15.7179 90.0925 18.4864 86.7319 18.4864C84.0253 18.4864 82.3043 16.8776 82.3043 14.0465ZM90.7705 12.6217C90.7705 10.1569 89.4589 8.9144 87.4081 8.9144C84.7237 8.9144 83.4325 11.4197 83.4325 13.7409C83.4325 16.2057 84.7441 17.4685 86.7949 17.4685C89.5015 17.4685 90.7705 14.9632 90.7705 12.6217Z" fill="white"/>
<path d="M91.8969 15.5743C91.8969 15.3093 91.9172 15.0442 91.9784 14.7809H93.064C93.0028 14.9632 93.0028 15.1473 93.0028 15.3313C93.0028 16.5536 93.9866 17.4703 95.8725 17.4703C97.7584 17.4703 98.8847 16.7984 98.8847 15.4344C98.8847 14.0704 97.9214 13.8458 96.8766 13.7243L95.4001 13.5403C94.1088 13.3764 92.9195 12.6033 92.9195 11.0147C92.9195 9.12057 94.2719 7.8983 96.8747 7.8983C99.0885 7.8983 100.502 8.815 100.502 10.7092C100.502 10.9742 100.502 11.3203 100.421 11.6259H99.3349C99.3757 11.381 99.4164 11.1583 99.4164 10.9337C99.4164 9.34515 98.1456 8.91809 96.7302 8.91809C94.9888 8.91809 94.0255 9.63047 94.0255 10.8527C94.0255 11.8707 94.8035 12.3401 96.0948 12.4818L97.4064 12.6457C98.9848 12.8095 99.9074 13.8477 99.9074 15.1914C99.9074 17.3709 98.2882 18.4901 95.7261 18.4901C93.164 18.4901 91.8932 17.2476 91.8932 15.578L91.8969 15.5743Z" fill="white"/>
<path d="M0 12C0 5.37258 5.37258 0 12 0C18.6274 0 24 5.37258 24 12C24 18.6274 18.6274 24 12 24C5.37258 24 0 18.6274 0 12Z" fill="white"/>
<path fill-rule="evenodd" clip-rule="evenodd" d="M13.8313 6C14.311 6 14.7561 6.23342 15.0059 6.61604L18.0843 11.3303C18.3528 11.7415 18.3528 12.2585 18.0843 12.6697L15.0059 17.384C14.7561 17.7666 14.311 18 13.8313 18L8.91877 18C8.20266 18 7.7627 17.2675 8.13572 16.6964L10.9112 12.4465C11.0903 12.1723 11.0903 11.8277 10.9112 11.5535L8.13572 7.30363C7.7627 6.73246 8.20266 6 8.91877 6L13.8313 6Z" fill="#171717"/>
</g>
<defs>
<clipPath id="clip0_1705_5900">
<rect width="100.5" height="24" fill="white"/>
</clipPath>
</defs>
</svg>
